<svg xmlns="http://www.w3.org/2000/svg" width="1280" height="820" font-family="Helvetica Neue, Helvetica, Arial, sans-serif">
<rect x="0" y="0" width="1280" height="820" fill="#0E1114"/>
<rect x="0" y="0" width="220" height="820" rx="0" fill="#14181D" opacity="1"/>
<line x1="220" y1="0" x2="220" y2="820" stroke="#262C33" stroke-width="1" opacity="1"/>
<rect x="20" y="22" width="26" height="26" rx="7" fill="#58A6FF" opacity="1"/>
<text x="22" y="40" font-family="Helvetica Neue, Helvetica, Arial, sans-serif" font-size="15" font-weight="600" fill="#FFFFFF" text-anchor="middle" opacity="1">◈</text>
<text x="56" y="40" font-family="Helvetica Neue, Helvetica, Arial, sans-serif" font-size="15" font-weight="600" fill="#E6E9ED" text-anchor="start" opacity="1">Mission Control</text>
<text x="20" y="78" font-family="Helvetica Neue, Helvetica, Arial, sans-serif" font-size="11" font-weight="600" fill="#96A0AA" text-anchor="start" opacity="1" letter-spacing="0.08em">WORKSPACE</text>
<text x="42" y="114" font-family="Helvetica Neue, Helvetica, Arial, sans-serif" font-size="13.5" font-weight="400" fill="#E6E9ED" text-anchor="start" opacity="1">Overview</text>
<rect x="19" y="103" width="12" height="12" rx="3.5" fill="none" stroke="#96A0AA" stroke-width="1.6" opacity="1"/>
<line x1="22" y1="109.0" x2="28" y2="109.0" stroke="#96A0AA" stroke-width="1.6" opacity="1"/>
<line x1="25.0" y1="106" x2="25.0" y2="112" stroke="#96A0AA" stroke-width="1.6" opacity="1"/>
<rect x="12" y="134" width="196" height="34" rx="8" fill="#58A6FF" opacity="1"/>
<text x="42" y="156" font-family="Helvetica Neue, Helvetica, Arial, sans-serif" font-size="13.5" font-weight="600" fill="#FFFFFF" text-anchor="start" opacity="1">Tasks</text>
<line x1="19.5" y1="147.0" x2="30.5" y2="147.0" stroke="#FFFFFF" stroke-width="1.8" opacity="1"/>
<line x1="19.5" y1="151.5" x2="30.5" y2="151.5" stroke="#FFFFFF" stroke-width="1.8" opacity="1"/>
<line x1="19.5" y1="156.0" x2="30.5" y2="156.0" stroke="#FFFFFF" stroke-width="1.8" opacity="1"/>
<line x1="19.5" y1="147" x2="22.5" y2="147" stroke="#FFFFFF" stroke-width="1.8" opacity="1"/>
<line x1="19.5" y1="151.5" x2="22.5" y2="151.5" stroke="#FFFFFF" stroke-width="1.8" opacity="1"/>
<line x1="19.5" y1="156" x2="22.5" y2="156" stroke="#FFFFFF" stroke-width="1.8" opacity="1"/>
<text x="42" y="198" font-family="Helvetica Neue, Helvetica, Arial, sans-serif" font-size="13.5" font-weight="400" fill="#E6E9ED" text-anchor="start" opacity="1">Tickets</text>
<rect x="19.5" y="187.5" width="11" height="11" rx="3" fill="none" stroke="#96A0AA" stroke-width="1.6" opacity="1"/>
<line x1="22" y1="191.5" x2="28" y2="191.5" stroke="#96A0AA" stroke-width="1.6" opacity="1"/>
<line x1="22" y1="195.5" x2="28" y2="195.5" stroke="#96A0AA" stroke-width="1.4" opacity="0.5"/>
<text x="42" y="240" font-family="Helvetica Neue, Helvetica, Arial, sans-serif" font-size="13.5" font-weight="400" fill="#E6E9ED" text-anchor="start" opacity="1">Backlog</text>
<line x1="20" y1="230" x2="30" y2="230" stroke="#96A0AA" stroke-width="1.6" opacity="1"/>
<line x1="20" y1="235" x2="30" y2="235" stroke="#96A0AA" stroke-width="1.6" opacity="1"/>
<line x1="20" y1="240" x2="30" y2="240" stroke="#96A0AA" stroke-width="1.6" opacity="1"/>
<line x1="20" y1="230" x2="20" y2="240" stroke="#96A0AA" stroke-width="1.6" opacity="1"/>
<text x="42" y="282" font-family="Helvetica Neue, Helvetica, Arial, sans-serif" font-size="13.5" font-weight="400" fill="#E6E9ED" text-anchor="start" opacity="1">Calendar</text>
<rect x="19.5" y="272" width="11" height="11" rx="3" fill="none" stroke="#96A0AA" stroke-width="1.6" opacity="1"/>
<line x1="19.5" y1="276.5" x2="30.5" y2="276.5" stroke="#96A0AA" stroke-width="1.6" opacity="1"/>
<line x1="22.5" y1="270.5" x2="22.5" y2="273.5" stroke="#96A0AA" stroke-width="1.6" opacity="1"/>
<line x1="27.5" y1="270.5" x2="27.5" y2="273.5" stroke="#96A0AA" stroke-width="1.6" opacity="1"/>
<text x="42" y="324" font-family="Helvetica Neue, Helvetica, Arial, sans-serif" font-size="13.5" font-weight="400" fill="#E6E9ED" text-anchor="start" opacity="1">Approvals</text>
<path d="M19.5,319.0 l3.5,3.5 l7.5,-8" stroke="#96A0AA" stroke-width="1.8" fill="none" stroke-linecap="round" stroke-linejoin="round"/>
<text x="20" y="360" font-family="Helvetica Neue, Helvetica, Arial, sans-serif" font-size="11" font-weight="600" fill="#96A0AA" text-anchor="start" opacity="1" letter-spacing="0.08em">TEAM</text>
<text x="42" y="396" font-family="Helvetica Neue, Helvetica, Arial, sans-serif" font-size="13.5" font-weight="400" fill="#E6E9ED" text-anchor="start" opacity="1">Agents</text>
<line x1="24.2" y1="385" x2="24.2" y2="387.88" stroke="#96A0AA" stroke-width="1.2" opacity="1"/>
<circle cx="24.2" cy="384" r="1.1700000000000002" fill="#96A0AA" opacity="1"/>
<rect x="19.7" y="387.88" width="9.0" height="6.84" rx="2.3400000000000003" fill="#96A0AA" opacity="1"/>
<circle cx="22.490000000000002" cy="390.76" r="1.215" fill="#FFFFFF" opacity="1"/>
<circle cx="25.91" cy="390.76" r="1.215" fill="#FFFFFF" opacity="1"/>
<rect x="21.68" y="396.34" width="5.04" height="5.9399999999999995" rx="1.71" fill="#96A0AA" opacity="0.72"/>
<text x="42" y="438" font-family="Helvetica Neue, Helvetica, Arial, sans-serif" font-size="13.5" font-weight="400" fill="#E6E9ED" text-anchor="start" opacity="1">Factory</text>
<line x1="24.2" y1="427" x2="24.2" y2="429.88" stroke="#96A0AA" stroke-width="1.2" opacity="1"/>
<circle cx="24.2" cy="426" r="1.1700000000000002" fill="#96A0AA" opacity="1"/>
<rect x="19.7" y="429.88" width="9.0" height="6.84" rx="2.3400000000000003" fill="#96A0AA" opacity="1"/>
<circle cx="22.490000000000002" cy="432.76" r="1.215" fill="#FFFFFF" opacity="1"/>
<circle cx="25.91" cy="432.76" r="1.215" fill="#FFFFFF" opacity="1"/>
<rect x="21.68" y="438.34" width="5.04" height="5.9399999999999995" rx="1.71" fill="#96A0AA" opacity="0.72"/>
<text x="42" y="480" font-family="Helvetica Neue, Helvetica, Arial, sans-serif" font-size="13.5" font-weight="400" fill="#E6E9ED" text-anchor="start" opacity="1">Live Activity</text>
<path d="M18.5,475.0 L21,475.0 L23,470.0 L26,480.0 L28,475.0 L31.5,475.0" stroke="#96A0AA" stroke-width="1.7" fill="none" stroke-linecap="round" stroke-linejoin="round"/>
<text x="20" y="516" font-family="Helvetica Neue, Helvetica, Arial, sans-serif" font-size="11" font-weight="600" fill="#96A0AA" text-anchor="start" opacity="1" letter-spacing="0.08em">OBSERVE</text>
<text x="42" y="552" font-family="Helvetica Neue, Helvetica, Arial, sans-serif" font-size="13.5" font-weight="400" fill="#E6E9ED" text-anchor="start" opacity="1">Health</text>
<path d="M25.0,541.5 l-6,7 l4,0 l-2,6 l7,-8 l-4,0 z" stroke="#96A0AA" stroke-width="1.6" fill="none" stroke-linecap="round" stroke-linejoin="round"/>
<text x="42" y="594" font-family="Helvetica Neue, Helvetica, Arial, sans-serif" font-size="13.5" font-weight="400" fill="#E6E9ED" text-anchor="start" opacity="1">Sessions</text>
<rect x="19" y="584.5" width="11" height="11" rx="3" fill="none" stroke="#96A0AA" stroke-width="1.6" opacity="1"/>
<rect x="21.5" y="587" width="11" height="11" rx="3" fill="none" stroke="#96A0AA" stroke-width="1.6" opacity="1"/>
<text x="42" y="636" font-family="Helvetica Neue, Helvetica, Arial, sans-serif" font-size="13.5" font-weight="400" fill="#E6E9ED" text-anchor="start" opacity="1">Usage &amp; Cost</text>
<rect x="19.5" y="631" width="3.2" height="5" rx="1" fill="#96A0AA" opacity="1"/>
<rect x="24.0" y="628" width="3.2" height="8" rx="1" fill="#96A0AA" opacity="1"/>
<rect x="28.5" y="625" width="3.2" height="11" rx="1" fill="#96A0AA" opacity="1"/>
<line x1="19" y1="637.5" x2="31" y2="637.5" stroke="#96A0AA" stroke-width="1.6" opacity="1"/>
<text x="42" y="678" font-family="Helvetica Neue, Helvetica, Arial, sans-serif" font-size="13.5" font-weight="400" fill="#E6E9ED" text-anchor="start" opacity="1">Logs</text>
<line x1="19.5" y1="669.0" x2="30.5" y2="669.0" stroke="#96A0AA" stroke-width="1.6" opacity="1"/>
<line x1="19.5" y1="672.6" x2="30.5" y2="672.6" stroke="#96A0AA" stroke-width="1.6" opacity="1"/>
<line x1="19.5" y1="676.2" x2="30.5" y2="676.2" stroke="#96A0AA" stroke-width="1.6" opacity="1"/>
<line x1="19.5" y1="679.8" x2="30.5" y2="679.8" stroke="#96A0AA" stroke-width="1.6" opacity="1"/>
<circle cx="28.5" cy="669" r="1.6" fill="#96A0AA" opacity="1"/>
<line x1="20" y1="728" x2="200" y2="728" stroke="#262C33" stroke-width="1" opacity="1"/>
<rect x="12" y="744" width="196" height="40" rx="10" fill="#1B2026" opacity="1"/>
<text x="24" y="767" font-family="Helvetica Neue, Helvetica, Arial, sans-serif" font-size="13" font-weight="500" fill="#E6E9ED" text-anchor="start" opacity="1">⚙  Settings</text>
<circle cx="26" cy="796" r="5" fill="#3FB950" opacity="1"/>
<text x="38" y="800" font-family="Helvetica Neue, Helvetica, Arial, sans-serif" font-size="11.5" font-weight="400" fill="#96A0AA" text-anchor="start" opacity="1">Connected · 74ms</text>
<text x="120" y="800" font-family="Helvetica Neue, Helvetica, Arial, sans-serif" font-size="11.5" font-weight="400" fill="#6B7681" text-anchor="start" opacity="1">ws://…:18789</text>
<rect x="220" y="0" width="1060" height="56" rx="0" fill="#15191D" opacity="1"/>
<line x1="220" y1="56" x2="1280" y2="56" stroke="#262C33" stroke-width="1" opacity="1"/>
<text x="244" y="35" font-family="Helvetica Neue, Helvetica, Arial, sans-serif" font-size="17" font-weight="600" fill="#E6E9ED" text-anchor="start" opacity="1">Tasks</text>
<rect x="860" y="12" width="200" height="32" rx="16.0" fill="#23282F" stroke="#2E353D" stroke-width="1" opacity="1"/>
<circle cx="876" cy="28.0" r="4" fill="none" stroke="#6B7681" stroke-width="1.5" opacity="1"/>
<line x1="879" y1="31.5" x2="883" y2="35.5" stroke="#6B7681" stroke-width="1.5" opacity="1"/>
<text x="892" y="32.0" font-family="Helvetica Neue, Helvetica, Arial, sans-serif" font-size="12.5" font-weight="400" fill="#6B7681" text-anchor="start" opacity="1">Search</text>
<circle cx="1090" cy="28" r="5" fill="#3FB950" opacity="1"/>
<text x="1100" y="32" font-family="Helvetica Neue, Helvetica, Arial, sans-serif" font-size="12" font-weight="500" fill="#B6BEC7" text-anchor="start" opacity="1">Connected</text>
<line x1="1148" y1="16" x2="1148" y2="40" stroke="#262C33" stroke-width="1" opacity="1"/>
<rect x="1148" y="12" width="40" height="32" rx="16" fill="#22282F" stroke="#2E353D" stroke-width="1" opacity="1"/>
<circle cx="1168" cy="28" r="4.6" fill="none" stroke="#96A0AA" stroke-width="1.7" opacity="1"/>
<line x1="1176.5" y1="28.0" x2="1179.5" y2="28.0" stroke="#96A0AA" stroke-width="1.7" opacity="1"/>
<line x1="1174.0104076400858" y1="34.01040764008565" x2="1176.1317279836453" y2="36.1317279836453" stroke="#96A0AA" stroke-width="1.7" opacity="1"/>
<line x1="1168.0" y1="36.5" x2="1168.0" y2="39.5" stroke="#96A0AA" stroke-width="1.7" opacity="1"/>
<line x1="1161.9895923599142" y1="34.01040764008565" x2="1159.8682720163547" y2="36.1317279836453" stroke="#96A0AA" stroke-width="1.7" opacity="1"/>
<line x1="1159.5" y1="28.0" x2="1156.5" y2="28.0" stroke="#96A0AA" stroke-width="1.7" opacity="1"/>
<line x1="1161.9895923599142" y1="21.989592359914347" x2="1159.8682720163547" y2="19.8682720163547" stroke="#96A0AA" stroke-width="1.7" opacity="1"/>
<line x1="1168.0" y1="19.5" x2="1168.0" y2="16.5" stroke="#96A0AA" stroke-width="1.7" opacity="1"/>
<line x1="1174.0104076400858" y1="21.989592359914344" x2="1176.1317279836453" y2="19.8682720163547" stroke="#96A0AA" stroke-width="1.7" opacity="1"/>
<rect x="1196" y="12" width="32" height="32" rx="16" fill="#2F81F7" opacity="1"/>
<text x="1212" y="33" font-family="Helvetica Neue, Helvetica, Arial, sans-serif" font-size="14" font-weight="600" fill="#FFFFFF" text-anchor="middle" opacity="1">J</text>
<text x="244" y="92" font-family="Helvetica Neue, Helvetica, Arial, sans-serif" font-size="22" font-weight="600" fill="#E6E9ED" text-anchor="start" opacity="1">Tasks</text>
<text x="244" y="114" font-family="Helvetica Neue, Helvetica, Arial, sans-serif" font-size="13" font-weight="400" fill="#B6BEC7" text-anchor="start" opacity="1">What's in flight, queued, and done today — at a glance.</text>
<text x="244" y="128" font-family="Helvetica Neue, Helvetica, Arial, sans-serif" font-size="11" font-weight="600" fill="#6B7681" text-anchor="start" opacity="1" letter-spacing="0.1em">IN FLIGHT</text>
<rect x="244" y="138" width="780" height="114" rx="12" fill="#1A1F25" stroke="#2E353D" stroke-width="1" opacity="1"/>
<text x="260" y="174" font-family="Helvetica Neue, Helvetica, Arial, sans-serif" font-size="13" font-weight="500" fill="#E6E9ED" text-anchor="start" opacity="1">Deploy mission-control to staging</text>
<line x1="670.4" y1="162" x2="670.4" y2="164.56" stroke="#6D28D9" stroke-width="1.2" opacity="1"/>
<circle cx="670.4" cy="161" r="1.04" fill="#6D28D9" opacity="1"/>
<rect x="666.4" y="164.56" width="8.0" height="6.08" rx="2.08" fill="#6D28D9" opacity="1"/>
<circle cx="668.88" cy="167.12" r="1.08" fill="#FFFFFF" opacity="1"/>
<circle cx="671.92" cy="167.12" r="1.08" fill="#FFFFFF" opacity="1"/>
<rect x="668.16" y="172.08" width="4.4799999999999995" height="5.28" rx="1.52" fill="#6D28D9" opacity="0.72"/>
<text x="686" y="174" font-family="Helvetica Neue, Helvetica, Arial, sans-serif" font-size="12" font-weight="400" fill="#B6BEC7" text-anchor="start" opacity="1">Henry</text>
<rect x="784" y="162" width="64.19999999999999" height="20" rx="10.0" fill="#142B4A" opacity="1"/>
<text x="816.1" y="176.0" font-family="Helvetica Neue, Helvetica, Arial, sans-serif" font-size="10.5" font-weight="600" fill="#79C0FF" text-anchor="middle" opacity="1">RUNNING</text>
<rect x="860" y="170" width="100" height="5" rx="2.5" fill="#2E353D" opacity="1"/>
<rect x="860" y="170" width="62.0" height="5" rx="2.5" fill="#2F81F7" opacity="1"/>
<text x="970" y="174" font-family="Helvetica Neue, Helvetica, Arial, sans-serif" font-size="11.5" font-weight="400" fill="#B6BEC7" text-anchor="start" opacity="1">62%</text>
<text x="904" y="174" font-family="Helvetica Neue, Helvetica, Arial, sans-serif" font-size="11.5" font-weight="400" fill="#6B7681" text-anchor="start" opacity="1">12:01</text>
<text x="974" y="174" font-family="Helvetica Neue, Helvetica, Arial, sans-serif" font-size="11.5" font-weight="400" fill="#6B7681" text-anchor="start" opacity="1">0:42</text>
<line x1="260" y1="194" x2="1008" y2="194" stroke="#262C33" stroke-width="1" opacity="1"/>
<text x="260" y="224" font-family="Helvetica Neue, Helvetica, Arial, sans-serif" font-size="13" font-weight="500" fill="#E6E9ED" text-anchor="start" opacity="1">QA review · wireframe feedback</text>
<line x1="670.4" y1="212" x2="670.4" y2="214.56" stroke="#B45309" stroke-width="1.2" opacity="1"/>
<circle cx="670.4" cy="211" r="1.04" fill="#B45309" opacity="1"/>
<rect x="666.4" y="214.56" width="8.0" height="6.08" rx="2.08" fill="#B45309" opacity="1"/>
<circle cx="668.88" cy="217.12" r="1.08" fill="#FFFFFF" opacity="1"/>
<circle cx="671.92" cy="217.12" r="1.08" fill="#FFFFFF" opacity="1"/>
<rect x="668.16" y="222.08" width="4.4799999999999995" height="5.28" rx="1.52" fill="#B45309" opacity="0.72"/>
<text x="686" y="224" font-family="Helvetica Neue, Helvetica, Arial, sans-serif" font-size="12" font-weight="400" fill="#B6BEC7" text-anchor="start" opacity="1">Ralph</text>
<rect x="784" y="212" width="64.19999999999999" height="20" rx="10.0" fill="#142B4A" opacity="1"/>
<text x="816.1" y="226.0" font-family="Helvetica Neue, Helvetica, Arial, sans-serif" font-size="10.5" font-weight="600" fill="#79C0FF" text-anchor="middle" opacity="1">RUNNING</text>
<rect x="860" y="220" width="100" height="5" rx="2.5" fill="#2E353D" opacity="1"/>
<rect x="860" y="220" width="34.0" height="5" rx="2.5" fill="#2F81F7" opacity="1"/>
<text x="970" y="224" font-family="Helvetica Neue, Helvetica, Arial, sans-serif" font-size="11.5" font-weight="400" fill="#B6BEC7" text-anchor="start" opacity="1">34%</text>
<text x="904" y="224" font-family="Helvetica Neue, Helvetica, Arial, sans-serif" font-size="11.5" font-weight="400" fill="#6B7681" text-anchor="start" opacity="1">12:03</text>
<text x="974" y="224" font-family="Helvetica Neue, Helvetica, Arial, sans-serif" font-size="11.5" font-weight="400" fill="#6B7681" text-anchor="start" opacity="1">0:21</text>
<text x="244" y="270" font-family="Helvetica Neue, Helvetica, Arial, sans-serif" font-size="11" font-weight="600" fill="#6B7681" text-anchor="start" opacity="1" letter-spacing="0.1em">QUEUED</text>
<rect x="244" y="280" width="780" height="114" rx="12" fill="#1A1F25" stroke="#2E353D" stroke-width="1" opacity="1"/>
<text x="260" y="316" font-family="Helvetica Neue, Helvetica, Arial, sans-serif" font-size="13" font-weight="500" fill="#E6E9ED" text-anchor="start" opacity="1">Draft content brief for launch</text>
<line x1="670.4" y1="304" x2="670.4" y2="306.56" stroke="#0F766E" stroke-width="1.2" opacity="1"/>
<circle cx="670.4" cy="303" r="1.04" fill="#0F766E" opacity="1"/>
<rect x="666.4" y="306.56" width="8.0" height="6.08" rx="2.08" fill="#0F766E" opacity="1"/>
<circle cx="668.88" cy="309.12" r="1.08" fill="#FFFFFF" opacity="1"/>
<circle cx="671.92" cy="309.12" r="1.08" fill="#FFFFFF" opacity="1"/>
<rect x="668.16" y="314.08" width="4.4799999999999995" height="5.28" rx="1.52" fill="#0F766E" opacity="0.72"/>
<text x="686" y="316" font-family="Helvetica Neue, Helvetica, Arial, sans-serif" font-size="12" font-weight="400" fill="#B6BEC7" text-anchor="start" opacity="1">Quill</text>
<rect x="784" y="304" width="57.599999999999994" height="20" rx="10.0" fill="#332B15" opacity="1"/>
<text x="812.8" y="318.0" font-family="Helvetica Neue, Helvetica, Arial, sans-serif" font-size="10.5" font-weight="600" fill="#E3B341" text-anchor="middle" opacity="1">QUEUED</text>
<text x="904" y="316" font-family="Helvetica Neue, Helvetica, Arial, sans-serif" font-size="11.5" font-weight="400" fill="#6B7681" text-anchor="start" opacity="1">—</text>
<text x="974" y="316" font-family="Helvetica Neue, Helvetica, Arial, sans-serif" font-size="11.5" font-weight="400" fill="#6B7681" text-anchor="start" opacity="1">—</text>
<line x1="260" y1="336" x2="1008" y2="336" stroke="#262C33" stroke-width="1" opacity="1"/>
<text x="260" y="366" font-family="Helvetica Neue, Helvetica, Arial, sans-serif" font-size="13" font-weight="500" fill="#E6E9ED" text-anchor="start" opacity="1">Scan competitor pricing pages</text>
<line x1="670.4" y1="354" x2="670.4" y2="356.56" stroke="#15803D" stroke-width="1.2" opacity="1"/>
<circle cx="670.4" cy="353" r="1.04" fill="#15803D" opacity="1"/>
<rect x="666.4" y="356.56" width="8.0" height="6.08" rx="2.08" fill="#15803D" opacity="1"/>
<circle cx="668.88" cy="359.12" r="1.08" fill="#FFFFFF" opacity="1"/>
<circle cx="671.92" cy="359.12" r="1.08" fill="#FFFFFF" opacity="1"/>
<rect x="668.16" y="364.08" width="4.4799999999999995" height="5.28" rx="1.52" fill="#15803D" opacity="0.72"/>
<text x="686" y="366" font-family="Helvetica Neue, Helvetica, Arial, sans-serif" font-size="12" font-weight="400" fill="#B6BEC7" text-anchor="start" opacity="1">Scout</text>
<rect x="784" y="354" width="57.599999999999994" height="20" rx="10.0" fill="#332B15" opacity="1"/>
<text x="812.8" y="368.0" font-family="Helvetica Neue, Helvetica, Arial, sans-serif" font-size="10.5" font-weight="600" fill="#E3B341" text-anchor="middle" opacity="1">QUEUED</text>
<text x="904" y="366" font-family="Helvetica Neue, Helvetica, Arial, sans-serif" font-size="11.5" font-weight="400" fill="#6B7681" text-anchor="start" opacity="1">—</text>
<text x="974" y="366" font-family="Helvetica Neue, Helvetica, Arial, sans-serif" font-size="11.5" font-weight="400" fill="#6B7681" text-anchor="start" opacity="1">—</text>
<text x="244" y="412" font-family="Helvetica Neue, Helvetica, Arial, sans-serif" font-size="11" font-weight="600" fill="#6B7681" text-anchor="start" opacity="1" letter-spacing="0.1em">DONE TODAY</text>
<rect x="244" y="422" width="780" height="164" rx="12" fill="#1A1F25" stroke="#2E353D" stroke-width="1" opacity="1"/>
<text x="260" y="458" font-family="Helvetica Neue, Helvetica, Arial, sans-serif" font-size="13" font-weight="500" fill="#E6E9ED" text-anchor="start" opacity="1">README + docs polish</text>
<line x1="670.4" y1="446" x2="670.4" y2="448.56" stroke="#1D4ED8" stroke-width="1.2" opacity="1"/>
<circle cx="670.4" cy="445" r="1.04" fill="#1D4ED8" opacity="1"/>
<rect x="666.4" y="448.56" width="8.0" height="6.08" rx="2.08" fill="#1D4ED8" opacity="1"/>
<circle cx="668.88" cy="451.12" r="1.08" fill="#FFFFFF" opacity="1"/>
<circle cx="671.92" cy="451.12" r="1.08" fill="#FFFFFF" opacity="1"/>
<rect x="668.16" y="456.08" width="4.4799999999999995" height="5.28" rx="1.52" fill="#1D4ED8" opacity="0.72"/>
<text x="686" y="458" font-family="Helvetica Neue, Helvetica, Arial, sans-serif" font-size="12" font-weight="400" fill="#B6BEC7" text-anchor="start" opacity="1">Codex</text>
<rect x="784" y="446" width="44.4" height="20" rx="10.0" fill="#12301F" opacity="1"/>
<text x="806.2" y="460.0" font-family="Helvetica Neue, Helvetica, Arial, sans-serif" font-size="10.5" font-weight="600" fill="#56D364" text-anchor="middle" opacity="1">DONE</text>
<text x="904" y="458" font-family="Helvetica Neue, Helvetica, Arial, sans-serif" font-size="11.5" font-weight="400" fill="#6B7681" text-anchor="start" opacity="1">11:24</text>
<text x="974" y="458" font-family="Helvetica Neue, Helvetica, Arial, sans-serif" font-size="11.5" font-weight="400" fill="#6B7681" text-anchor="start" opacity="1">3:12</text>
<line x1="260" y1="478" x2="1008" y2="478" stroke="#262C33" stroke-width="1" opacity="1"/>
<text x="260" y="508" font-family="Helvetica Neue, Helvetica, Arial, sans-serif" font-size="13" font-weight="500" fill="#E6E9ED" text-anchor="start" opacity="1">Discord channel layout</text>
<line x1="670.4" y1="496" x2="670.4" y2="498.56" stroke="#B91C1C" stroke-width="1.2" opacity="1"/>
<circle cx="670.4" cy="495" r="1.04" fill="#B91C1C" opacity="1"/>
<rect x="666.4" y="498.56" width="8.0" height="6.08" rx="2.08" fill="#B91C1C" opacity="1"/>
<circle cx="668.88" cy="501.12" r="1.08" fill="#FFFFFF" opacity="1"/>
<circle cx="671.92" cy="501.12" r="1.08" fill="#FFFFFF" opacity="1"/>
<rect x="668.16" y="506.08" width="4.4799999999999995" height="5.28" rx="1.52" fill="#B91C1C" opacity="0.72"/>
<text x="686" y="508" font-family="Helvetica Neue, Helvetica, Arial, sans-serif" font-size="12" font-weight="400" fill="#B6BEC7" text-anchor="start" opacity="1">Pixel</text>
<rect x="784" y="496" width="44.4" height="20" rx="10.0" fill="#12301F" opacity="1"/>
<text x="806.2" y="510.0" font-family="Helvetica Neue, Helvetica, Arial, sans-serif" font-size="10.5" font-weight="600" fill="#56D364" text-anchor="middle" opacity="1">DONE</text>
<text x="904" y="508" font-family="Helvetica Neue, Helvetica, Arial, sans-serif" font-size="11.5" font-weight="400" fill="#6B7681" text-anchor="start" opacity="1">10:58</text>
<text x="974" y="508" font-family="Helvetica Neue, Helvetica, Arial, sans-serif" font-size="11.5" font-weight="400" fill="#6B7681" text-anchor="start" opacity="1">1:05</text>
<line x1="260" y1="528" x2="1008" y2="528" stroke="#262C33" stroke-width="1" opacity="1"/>
<text x="260" y="558" font-family="Helvetica Neue, Helvetica, Arial, sans-serif" font-size="13" font-weight="500" fill="#E6E9ED" text-anchor="start" opacity="1">Trend report · weekly</text>
<line x1="670.4" y1="546" x2="670.4" y2="548.56" stroke="#15803D" stroke-width="1.2" opacity="1"/>
<circle cx="670.4" cy="545" r="1.04" fill="#15803D" opacity="1"/>
<rect x="666.4" y="548.56" width="8.0" height="6.08" rx="2.08" fill="#15803D" opacity="1"/>
<circle cx="668.88" cy="551.12" r="1.08" fill="#FFFFFF" opacity="1"/>
<circle cx="671.92" cy="551.12" r="1.08" fill="#FFFFFF" opacity="1"/>
<rect x="668.16" y="556.08" width="4.4799999999999995" height="5.28" rx="1.52" fill="#15803D" opacity="0.72"/>
<text x="686" y="558" font-family="Helvetica Neue, Helvetica, Arial, sans-serif" font-size="12" font-weight="400" fill="#B6BEC7" text-anchor="start" opacity="1">Scout</text>
<rect x="784" y="546" width="44.4" height="20" rx="10.0" fill="#12301F" opacity="1"/>
<text x="806.2" y="560.0" font-family="Helvetica Neue, Helvetica, Arial, sans-serif" font-size="10.5" font-weight="600" fill="#56D364" text-anchor="middle" opacity="1">DONE</text>
<text x="904" y="558" font-family="Helvetica Neue, Helvetica, Arial, sans-serif" font-size="11.5" font-weight="400" fill="#6B7681" text-anchor="start" opacity="1">09:40</text>
<text x="974" y="558" font-family="Helvetica Neue, Helvetica, Arial, sans-serif" font-size="11.5" font-weight="400" fill="#6B7681" text-anchor="start" opacity="1">2:10</text>
</svg>